{
  "accessors": [
    {
      "bufferView": 2,
      "componentType": 5126,
      "count": 65532,
      "max": [
        0.11898242682218552,
        0.20922744274139404,
        -0.27278175950050354
      ],
      "min": [
        -0.09849130362272263,
        0.18545770645141602,
        -0.37643569707870483
      ],
      "type": "VEC3"
    },
    {
      "bufferView": 2,
      "byteOffset": 786384,
      "componentType": 5126,
      "count": 65532,
      "max": [
        0.9994178414344788,
        0.9999988079071045,
        0.99993896484375
      ],
      "min": [
        -0.9999709129333496,
        -0.8438569903373718,
        -0.9977059960365295
      ],
      "type": "VEC3"
    },
    {
      "bufferView": 1,
      "componentType": 5126,
      "count": 65532,
      "max": [
        0.9994991421699524,
        0.999455451965332
      ],
      "min": [
        0.00048828125,
        0.006347775459289551
      ],
      "type": "VEC2"
    },
    {
      "bufferView": 0,
      "componentType": 5125,
      "count": 339900,
      "type": "SCALAR"
    },
    {
      "bufferView": 2,
      "byteOffset": 1572768,
      "componentType": 5126,
      "count": 65532,
      "max": [
        0.11898242682218552,
        0.21239061653614044,
        -0.043724678456783295
      ],
      "min": [
        -0.1189824715256691,
        0.18545770645141602,
        -0.37643569707870483
      ],
      "type": "VEC3"
    },
    {
      "bufferView": 2,
      "byteOffset": 2359152,
      "componentType": 5126,
      "count": 65532,
      "max": [
        0.9996235370635986,
        0.9999999403953552,
        0.9999116659164429
      ],
      "min": [
        -0.9999343752861023,
        -0.652785062789917,
        -0.9999189972877502
      ],
      "type": "VEC3"
    },
    {
      "bufferView": 1,
      "byteOffset": 524256,
      "componentType": 5126,
      "count": 65532,
      "max": [
        0.9992064237594604,
        0.9994261860847473
      ],
      "min": [
        0.00048828125,
        0.004611492156982422
      ],
      "type": "VEC2"
    },
    {
      "bufferView": 0,
      "byteOffset": 1359600,
      "componentType": 5125,
      "count": 307308,
      "type": "SCALAR"
    },
    {
      "bufferView": 2,
      "byteOffset": 3145536,
      "componentType": 5126,
      "count": 65532,
      "max": [
        0.11898242682218552,
        0.2097943276166916,
        -0.09133489429950714
      ],
      "min": [
        -0.047801315784454346,
        0.18545770645141602,
        -0.2913432717323303
      ],
      "type": "VEC3"
    },
    {
      "bufferView": 2,
      "byteOffset": 3931920,
      "componentType": 5126,
      "count": 65532,
      "max": [
        0.9998022317886353,
        0.9999998807907104,
        0.9997055530548096
      ],
      "min": [
        -0.9996121525764465,
        -0.9505029320716858,
        -0.9997074604034424
      ],
      "type": "VEC3"
    },
    {
      "bufferView": 1,
      "byteOffset": 1048512,
      "componentType": 5126,
      "count": 65532,
      "max": [
        0.9993242621421814,
        0.9991885423660278
      ],
      "min": [
        0.00048828125,
        0.0024415254592895508
      ],
      "type": "VEC2"
    },
    {
      "bufferView": 0,
      "byteOffset": 2588832,
      "componentType": 5125,
      "count": 310284,
      "type": "SCALAR"
    },
    {
      "bufferView": 2,
      "byteOffset": 4718304,
      "componentType": 5126,
      "count": 65532,
      "max": [
        0.11898241937160492,
        0.2097943276166916,
        -0.022835014387965202
      ],
      "min": [
        -0.11898244917392731,
        0.18545770645141602,
        -0.2916928827762604
      ],
      "type": "VEC3"
    },
    {
      "bufferView": 2,
      "byteOffset": 5504688,
      "componentType": 5126,
      "count": 65532,
      "max": [
        0.9998288154602051,
        0.999999463558197,
        0.9998920559883118
      ],
      "min": [
        -0.9995399117469788,
        -0.9505029320716858,
        -0.9999633431434631
      ],
      "type": "VEC3"
    },
    {
      "bufferView": 1,
      "byteOffset": 1572768,
      "componentType": 5126,
      "count": 65532,
      "max": [
        0.9994400143623352,
        0.999502956867218
      ],
      "min": [
        0.00048828125,
        0.01806652545928955
      ],
      "type": "VEC2"
    },
    {
      "bufferView": 0,
      "byteOffset": 3829968,
      "componentType": 5125,
      "count": 317496,
      "type": "SCALAR"
    },
    {
      "bufferView": 2,
      "byteOffset": 6291072,
      "componentType": 5126,
      "count": 65533,
      "max": [
        0.11898241937160492,
        0.21649590134620667,
        -0.0228350181132555
      ],
      "min": [
        -0.11563550680875778,
        0.1854577213525772,
        -0.2883000373840332
      ],
      "type": "VEC3"
    },
    {
      "bufferView": 2,
      "byteOffset": 7077468,
      "componentType": 5126,
      "count": 65533,
      "max": [
        0.9997389912605286,
        0.9999998807907104,
        0.9998234510421753
      ],
      "min": [
        -0.9999004602432251,
        -0.8903906345367432,
        -0.9982699751853943
      ],
      "type": "VEC3"
    },
    {
      "bufferView": 1,
      "byteOffset": 2097024,
      "componentType": 5126,
      "count": 65533,
      "max": [
        0.9994056820869446,
        0.9994847774505615
      ],
      "min": [
        0.00048828122089616954,
        0.02268850803375244
      ],
      "type": "VEC2"
    },
    {
      "bufferView": 0,
      "byteOffset": 5099952,
      "componentType": 5125,
      "count": 294471,
      "type": "SCALAR"
    },
    {
      "bufferView": 2,
      "byteOffset": 7863864,
      "componentType": 5126,
      "count": 65532,
      "max": [
        0.11898241937160492,
        0.20844241976737976,
        -0.12905864417552948
      ],
      "min": [
        -0.1189824715256691,
        0.18545770645141602,
        -0.36718660593032837
      ],
      "type": "VEC3"
    },
    {
      "bufferView": 2,
      "byteOffset": 8650248,
      "componentType": 5126,
      "count": 65532,
      "max": [
        1.0,
        0.9999999403953552,
        0.9999808073043823
      ],
      "min": [
        -0.9997732639312744,
        -0.9595543742179871,
        -0.997664213180542
      ],
      "type": "VEC3"
    },
    {
      "bufferView": 1,
      "byteOffset": 2621288,
      "componentType": 5126,
      "count": 65532,
      "max": [
        0.9995048642158508,
        0.999506950378418
      ],
      "min": [
        0.00048828125,
        0.01416027545928955
      ],
      "type": "VEC2"
    },
    {
      "bufferView": 0,
      "byteOffset": 6277836,
      "componentType": 5125,
      "count": 292098,
      "type": "SCALAR"
    },
    {
      "bufferView": 2,
      "byteOffset": 9436632,
      "componentType": 5126,
      "count": 14910,
      "max": [
        -0.03601277992129326,
        0.2072466015815735,
        -0.1600618064403534
      ],
      "min": [
        -0.1189824715256691,
        0.19702525436878204,
        -0.3588881492614746
      ],
      "type": "VEC3"
    },
    {
      "bufferView": 2,
      "byteOffset": 9615552,
      "componentType": 5126,
      "count": 14910,
      "max": [
        0.999180018901825,
        0.9999997615814209,
        0.9998323321342468
      ],
      "min": [
        -0.9925109148025513,
        -0.43229997158050537,
        -0.9909142851829529
      ],
      "type": "VEC3"
    },
    {
      "bufferView": 1,
      "byteOffset": 3145544,
      "componentType": 5126,
      "count": 14910,
      "max": [
        0.9992097616195679,
        0.9991761445999146
      ],
      "min": [
        0.00048828125,
        0.03759777545928955
      ],
      "type": "VEC2"
    },
    {
      "bufferView": 0,
      "byteOffset": 7446228,
      "componentType": 5125,
      "count": 60288,
      "type": "SCALAR"
    }
  ],
  "asset": {
    "extras": {
      "author": "andrealft (https://sketchfab.com/andrealft)",
      "license": "CC-BY-4.0 (http://creativecommons.org/licenses/by/4.0/)",
      "source": "https://sketchfab.com/3d-models/platre-2-5014be792e4748878ce6bd47777d0371",
      "title": "Plâtre 2"
    },
    "generator": "Sketchfab-16.65.0",
    "version": "2.0"
  },
  "bufferViews": [
    {
      "buffer": 0,
      "byteLength": 7687380,
      "name": "floatBufferViews",
      "target": 34963
    },
    {
      "buffer": 0,
      "byteLength": 3264824,
      "byteOffset": 7687380,
      "byteStride": 8,
      "name": "floatBufferViews",
      "target": 34962
    },
    {
      "buffer": 0,
      "byteLength": 9794472,
      "byteOffset": 10952204,
      "byteStride": 12,
      "name": "floatBufferViews",
      "target": 34962
    }
  ],
  "buffers": [
    {
      "byteLength": 20746676,
      "uri": "scene.bin"
    }
  ],
  "extensionsUsed": [
    "KHR_materials_unlit"
  ],
  "images": [
    {
      "uri": "textures/default_tex0_baseColor.jpeg"
    }
  ],
  "materials": [
    {
      "extensions": {
        "KHR_materials_unlit": {}
      },
      "name": "default_tex0",
      "doubleSided": true,
      "pbrMetallicRoughness": {
        "baseColorTexture": {
          "index": 0
        },
        "metallicFactor": 0.0
      }
    }
  ],
  "meshes": [
    {
      "name": "Object_0",
      "primitives": [
        {
          "attributes": {
            "NORMAL": 1,
            "POSITION": 0,
            "TEXCOORD_0": 2
          },
          "indices": 3,
          "material": 0,
          "mode": 4
        }
      ]
    },
    {
      "name": "Object_1",
      "primitives": [
        {
          "attributes": {
            "NORMAL": 5,
            "POSITION": 4,
            "TEXCOORD_0": 6
          },
          "indices": 7,
          "material": 0,
          "mode": 4
        }
      ]
    },
    {
      "name": "Object_2",
      "primitives": [
        {
          "attributes": {
            "NORMAL": 9,
            "POSITION": 8,
            "TEXCOORD_0": 10
          },
          "indices": 11,
          "material": 0,
          "mode": 4
        }
      ]
    },
    {
      "name": "Object_3",
      "primitives": [
        {
          "attributes": {
            "NORMAL": 13,
            "POSITION": 12,
            "TEXCOORD_0": 14
          },
          "indices": 15,
          "material": 0,
          "mode": 4
        }
      ]
    },
    {
      "name": "Object_4",
      "primitives": [
        {
          "attributes": {
            "NORMAL": 17,
            "POSITION": 16,
            "TEXCOORD_0": 18
          },
          "indices": 19,
          "material": 0,
          "mode": 4
        }
      ]
    },
    {
      "name": "Object_5",
      "primitives": [
        {
          "attributes": {
            "NORMAL": 21,
            "POSITION": 20,
            "TEXCOORD_0": 22
          },
          "indices": 23,
          "material": 0,
          "mode": 4
        }
      ]
    },
    {
      "name": "Object_6",
      "primitives": [
        {
          "attributes": {
            "NORMAL": 25,
            "POSITION": 24,
            "TEXCOORD_0": 26
          },
          "indices": 27,
          "material": 0,
          "mode": 4
        }
      ]
    }
  ],
  "nodes": [
    {
      "children": [
        1
      ],
      "matrix": [
        1.0,
        0.0,
        0.0,
        0.0,
        0.0,
        2.220446049250313e-16,
        -1.0,
        0.0,
        0.0,
        1.0,
        2.220446049250313e-16,
        0.0,
        0.0,
        0.0,
        0.0,
        1.0
      ],
      "name": "Sketchfab_model"
    },
    {
      "children": [
        2
      ],
      "name": "root"
    },
    {
      "children": [
        3
      ],
      "matrix": [
        1.0,
        0.0,
        0.0,
        0.0,
        0.0,
        2.220446049250313e-16,
        1.0,
        0.0,
        0.0,
        -1.0,
        2.220446049250313e-16,
        0.0,
        0.0,
        0.0,
        0.0,
        1.0
      ],
      "name": "GLTF_SceneRootNode"
    },
    {
      "children": [
        4,
        5,
        6,
        7,
        8,
        9,
        10
      ],
      "name": "_0"
    },
    {
      "mesh": 0,
      "name": "Object_4"
    },
    {
      "mesh": 1,
      "name": "Object_5"
    },
    {
      "mesh": 2,
      "name": "Object_6"
    },
    {
      "mesh": 3,
      "name": "Object_7"
    },
    {
      "mesh": 4,
      "name": "Object_8"
    },
    {
      "mesh": 5,
      "name": "Object_9"
    },
    {
      "mesh": 6,
      "name": "Object_10"
    }
  ],
  "samplers": [
    {
      "magFilter": 9729,
      "minFilter": 9729,
      "wrapS": 33071,
      "wrapT": 33071
    }
  ],
  "scene": 0,
  "scenes": [
    {
      "name": "Sketchfab_Scene",
      "nodes": [
        0
      ]
    }
  ],
  "textures": [
    {
      "sampler": 0,
      "source": 0
    }
  ]
}
